<svg xmlns="http://www.w3.org/2000/svg" viewBox="0 0 72.07 69.5"><title>&#x8D44;&#x6E90; 168</title><path d="M12.08 40.65c-.17 0-.28-.06-.39-.06-7 5.54-9.79 10-9.84 13.7L2 55.52c.67 4 4.64 6.88 9.73 9 5.25 2.24 14.59 3.63 22.53 4.47v-27.5c-7.48-.06-17.43-.17-22.18-.84z" fill="#be202e"/><path d="M11.69 40.59l.05-.06a2.19 2.19 0 0 1 .39-.27 185 185 0 0 1 22.09-14.82V2l-1.85-2a30.45 30.45 0 0 1-4.08 4.92c-5.31 5.14-11 8.78-15.71 12C5.7 21.58.45 25.38 0 31.48l.22 2.62 1.63 20.13c0-3.63 2.79-8.16 9.84-13.64z" fill="#f69320"/><path d="M60.05 28.85c.16 0 .28.06.39.06 7-5.54 9.84-10 9.84-13.7L70.17 14c-.67-4-4.64-6.88-9.68-9C55.24 2.74 45.9 1.34 38 .5V28c7.34 0 17.29.12 22.05.85z" fill="#00a69c"/><path d="M60.44 28.91l-.06.05a2.19 2.19 0 0 1-.39.28 185.85 185.85 0 0 1-22.08 14.82v23.42l1.79 2a30 30 0 0 1 4.08-4.92c5.31-5.15 10.9-8.78 15.71-12 6.87-4.65 12.13-8.45 12.58-14.56l-.23-2.63-1.62-20.11c.06 3.64-2.74 8.11-9.78 13.65z" fill="#a4cd39"/></svg>